# AST/ASF file generated using VICON BodyLanguage
# -----------------------------------------------
:version 1.10
:name VICON
:units
  mass 1.0
  length 0.45
  angle deg
:documentation
   .ast/.asf automatically generated from VICON data using
   VICON BodyBuilder and BodyLanguage model FoxedUp or BRILLIANT.MOD
:root
   order TX TY TZ RX RY RZ
   axis XYZ
   position 0 0 0  
   orientation 0 0 0 
:bonedata
  begin
     id 1 
     name lhipjoint
     direction 0.522423 -0.726805 0.445902 
     length 2.25074 
     axis 0 0 0  XYZ
  end
  begin
     id 2 
     name lfemur
     direction 0.34202 -0.939693 0  
     length 6.54609  
     axis 0 0 20  XYZ
    dof rx ry rz
    limits (-160.0 20.0)
           (-70.0 70.0)
           (-60.0 70.0)
  end
  begin
     id 3 
     name ltibia
     direction 0.34202 -0.939693 0   
     length 7.7528   
     axis 0 0 20   XYZ
    dof rx
    limits (-10.0 170.0)
  end
  begin
     id 4 
     name lfoot
     direction 0.143696 -0.394801 0.90746   
     length 1.73269   
     axis -90 7.62852e-016 20   XYZ
    dof rx rz
    limits (-45.0 90.0)
           (-70.0 20.0)
  end
  begin
     id 5 
     name ltoes
     direction 1.53633e-011 -4.21912e-011 1   
     length 0.858383   
     axis -90 7.62852e-016 20   XYZ
    dof rx
    limits (-90.0 20.0)
  end
  begin
     id 6 
     name rhipjoint
     direction -0.515943 -0.73016 0.447961   
     length 2.2404  
     axis 0 0 0  XYZ 
  end
  begin
     id 7 
     name rfemur
     direction -0.34202 -0.939693 0   
     length 6.84377   
     axis 0 0 -20   XYZ
    dof rx ry rz
    limits (-160.0 20.0)
           (-70.0 70.0)
           (-70.0 60.0)
  end
  begin
     id 8 
     name rtibia
     direction -0.34202 -0.939693 0   
     length 7.57596   
     axis 0 0 -20   XYZ
    dof rx
    limits (-10.0 170.0)
 end
 begin
     id 9 
     name rfoot
     direction -0.0999372 -0.274575 0.956358   
     length 1.78783  
     axis -90 -7.62852e-016 -20   XYZ
    dof rx rz
    limits (-45.0 90.0)
           (-20.0 70.0)
  end
  begin
     id 10 
     name rtoes
     direction -1.53535e-011 -4.21895e-011 1   
     length 0.898614   
     axis -90 -7.62852e-016 -20   XYZ
    dof rx
    limits (-90.0 20.0)
  end
  begin
     id 11 
     name lowerback
     direction -0.011775 0.996164 -0.0867116   
     length 1.91499   
     axis 0 0 0   XYZ
    dof rx ry rz
    limits (-20.0 45.0)
           (-30.0 30.0)
           (-30.0 30.0)
  end
  begin
     id 12 
     name upperback
     direction -0.00189771 0.999673 -0.0254833   
     length 1.92213   
     axis 0 0 0   XYZ
    dof rx ry rz
    limits (-20.0 45.0)
           (-30.0 30.0)
           (-30.0 30.0)
  end
  begin
     id 13 
     name thorax
     direction 0.00335995 0.999878 0.0152401   
     length 1.93138   
     axis 0 0 0   XYZ
    dof rx ry rz
    limits (-20.0 45.0)
           (-30.0 30.0)
           (-30.0 30.0)
  end
  begin
     id 14 
     name lowerneck
     direction 0.00233191 0.998509 0.0545404   
     length 1.59408   
     axis 0 0 0   XYZ
    dof rx ry rz
    limits (-20.0 45.0)
           (-30.0 30.0)
           (-30.0 30.0)
  end
  begin
     id 15 
     name upperneck
     direction 0.07881 0.9956 -0.0506934   
     length 1.59344   
     axis 0 0 0   XYZ
    dof rx ry rz
    limits (-20.0 45.0)
           (-30.0 30.0)
           (-30.0 30.0)
  end
  begin
     id 16
     name head
     direction 0.0261681 0.999378 -0.0236299  
     length 1.60935  
     axis 0 0 0   XYZ
    dof rx ry rz
    limits (-20.0 45.0)
           (-30.0 30.0)
           (-30.0 30.0)
  end
  begin
     id 17 
     name lclavicle
     direction 0.96643 0.252035 0.0499195  
     length 3.82153  
     axis 0 0 0   XYZ
    dof ry rz
    limits (-20.0 10.0)
           (0.0 20.0)
  end
  begin
     id 18 
     name lhumerus
     direction 1 -4.48967e-011 -2.01614e-018   
     length 4.87796   
     axis 180 -30 -90   XYZ
    dof rx ry rz
    limits (-60.0 90.0)
           (-90.0 90.0)
           (-90.0 90.0)
  end
  begin
     id 19
     name lradius
     direction 1 -4.48958e-011 3.1409e-027   
     length 3.23169   
     axis 180 -30 -90   XYZ
    dof rx
    limits (-10.0 170.0)
  end
  begin
     id 20
     name lwrist
     direction 1 -4.48924e-011 1.0365e-027   
     length 1.61584   
     axis -2.56395e-016 90 90   XYZ
    dof ry
    limits (-180.0 0.0)
 end
  begin
     id 21 
     name lhand
     direction 1 -4.49055e-011 2.09488e-027   
     length 0.731324   
     axis -1.32723e-015 90 90   XYZ
    dof rx rz
    limits (-90.0 90.0)
           (-45.0 45.0)
  end
  begin
     id 22 
     name lfingers
     direction 1 -4.48935e-011 4.14981e-027   
     length 0.589612   
     axis -2.6545e-015 90 90   XYZ
    dof rx
    limits (0.0 90.0)
  end
  begin
     id 23
     name lthumb
     direction 0.707107 -6.35097e-011 0.707107   
     length 0.846569   
     axis -90 45 5.05613e-014   XYZ
    dof rx rz
    limits (-45.0 45.0)
           (-45.0 45.0)
  end
  begin
     id 24 
     name rclavicle
     direction -0.979337 0.201016 0.0221522   
     length 3.73827  
     axis 0 0 0   XYZ 
    dof ry rz
    limits (-10.0 20.0)
           (-20.0 0.0)
  end
  begin
     id 25 
     name rhumerus
     direction -1 -4.48971e-011 1.65907e-027  
     length 4.9143   
     axis 180 30 90   XYZ
    dof rx ry rz
    limits (-90.0 60.0)
           (-90.0 90.0)
           (-90.0 90.0)
  end
  begin
     id 26 
     name rradius
     direction -1 -4.4894e-011 2.17871e-028   
     length 3.29093   
     axis 180 30 90   XYZ
    dof rx
    limits (-10.0 170.0)
  end
  begin
     id 27 
     name rwrist
     direction -1 -4.48971e-011 1.04038e-027   
     length 1.64546   
     axis -2.56395e-016 -90 -90   XYZ
    dof ry
    limits (-180.0 0.0)
  end
  begin
     id 28
     name rhand
     direction -1 -4.49017e-011 2.08843e-027   
     length 0.54512   
     axis -1.32723e-015 -90 -90   XYZ
    dof rx rz
    limits (-90.0 90.0)
           (-45.0 45.0)
  end
  begin
     id 29
     name rfingers
     direction -1 -4.48918e-011 4.1439e-027   
     length 0.43949   
     axis -2.6545e-015 -90 -90   XYZ
    dof rx
    limits (0.0 90.0)
  end
  begin
     id 30
     name rthumb
     direction -0.707107 -6.35065e-011 0.707107   
     length 0.631022   
     axis -90 -45 -5.05613e-014   XYZ
    dof rx rz
    limits (-45.0 45.0)
           (-45.0 45.0)
  end
:hierarchy
  begin
    root lhipjoint rhipjoint lowerback
    lhipjoint lfemur
    lfemur ltibia
    ltibia lfoot
    lfoot ltoes
    rhipjoint rfemur
    rfemur rtibia
    rtibia rfoot
    rfoot rtoes
    lowerback upperback
    upperback thorax
    thorax lowerneck lclavicle rclavicle
    lowerneck upperneck
    upperneck head
    lclavicle lhumerus
    lhumerus lradius
    lradius lwrist
    lwrist lhand lthumb
    lhand lfingers
    rclavicle rhumerus
    rhumerus rradius
    rradius rwrist
    rwrist rhand rthumb
    rhand rfingers
  end

#!OML:ASF H:\BreakDance\Project 1\Capture day 1\Session 1\Male.ASF
:FULLY-SPECIFIED
:DEGREES
509
root 6.30851 13.569 5.95569 31.6486 -52.6928 -15.6891
lowerback 13.7668 4.07645 -2.00493
upperback 7.04829 4.89005 0.550384
thorax -0.493957 2.27991 1.01266
lowerneck -3.25392 -8.6938 -2.26024
upperneck -8.53253 -11.142 12.9143
head -1.23919 -5.86883 4.58411
rclavicle -3.18055e-014 -3.18055e-014
rhumerus 16.7436 -8.55063 -62.1802
rradius 22.4192
rwrist 9.75066
rhand -28.5315 -35.4484
rfingers 7.12502
rthumb -1.89926 -65.4196
lclavicle -3.18055e-014 -3.18055e-014
lhumerus 11.0842 9.81687 56.8603
lradius 25.0653
lwrist -13.5504
lhand -48.6327 -45.9825
lfingers 7.12502
lthumb -21.2763 -17.1303
rfemur -21.0301 -5.53003 -13.2493
rtibia 30.2085
rfoot -11.6838 -26.8369
rtoes 26.9435
lfemur -84.4831 17.6905 -28.1883
ltibia 81.7106
lfoot -26.7855 -0.602702
ltoes -14.7413
510
root 6.35221 13.5897 5.8681 32.0882 -52.4454 -15.7763
lowerback 13.7988 4.29204 -1.89262
upperback 6.98939 5.18381 0.469725
thorax -0.565387 2.43113 0.819575
lowerneck -3.21536 -9.10572 -2.38241
upperneck -8.65178 -11.6731 13.3769
head -1.20305 -6.14903 4.75835
rclavicle 7.15625e-015 -5.1684e-014
rhumerus 17.9817 -8.07829 -61.1773
rradius 22.2948
rwrist 9.42454
rhand -27.9623 -35.301
rfingers 7.12502
rthumb -1.34946 -65.2765
lclavicle 7.15625e-015 -5.1684e-014
lhumerus 10.63 11.1226 55.0349
lradius 24.8893
lwrist -13.4436
lhand -48.6298 -45.5539
lfingers 7.12502
lthumb -21.2735 -16.7014
rfemur -18.2772 -5.9313 -12.2047
rtibia 30.0146
rfoot -11.3701 -26.384
rtoes 26.5879
lfemur -85.0606 17.5836 -28.1241
ltibia 81.1315
lfoot -26.1094 -0.756841
ltoes -14.4406
511
root 6.39664 13.6132 5.77641 32.5369 -52.1729 -15.8848
lowerback 13.8738 4.56767 -1.6804
upperback 6.90335 5.56467 0.285963
thorax -0.668336 2.62954 0.447459
lowerneck -3.07888 -9.57318 -2.29939
upperneck -8.82973 -12.2739 13.8855
head -1.20415 -6.4775 4.91831
rclavicle -3.61788e-014 -4.09496e-014
rhumerus 18.9215 -7.97084 -60.2894
rradius 22.1716
rwrist 9.21174
rhand -27.324 -35.1512
rfingers 7.12502
rthumb -0.732986 -65.1296
lclavicle -3.61788e-014 -4.09496e-014
lhumerus 10.3288 11.945 53.08
lradius 24.7713
lwrist -13.0123
lhand -48.5576 -45.1549
lfingers 7.12502
lthumb -21.2041 -16.2946
rfemur -15.5854 -6.40919 -11.0423
rtibia 29.8162
rfoot -10.9708 -25.8807
rtoes 26.0859
lfemur -85.5947 17.447 -27.9981
ltibia 80.498
lfoot -25.417 -0.80316
ltoes -14.4561
512
root 6.44198 13.6386 5.68133 33.0086 -51.8929 -16.0229
lowerback 13.9082 4.78555 -1.62275
upperback 6.85773 5.85445 0.221416
thorax -0.727993 2.77627 0.301587
lowerneck -2.92852 -9.95409 -2.53158
upperneck -9.2161 -12.6975 14.8345
head -1.07753 -6.73955 4.74824
rclavicle 5.1684e-014 1.07344e-014
rhumerus 19.9353 -7.47656 -59.2518
rradius 22.0736
rwrist 8.78695
rhand -26.6756 -35.1337
rfingers 7.12502
rthumb -0.106791 -65.1134
lclavicle 5.1684e-014 1.07344e-014
lhumerus 9.9056 13.0534 51.2603
lradius 24.6732
lwrist -12.529
lhand -48.4511 -44.7214
lfingers 7.12502
lthumb -21.1018 -15.8497
rfemur -12.9823 -7.00086 -9.77502
rtibia 29.6305
rfoot -10.372 -25.3659
rtoes 25.1802
lfemur -86.1002 17.2954 -27.8235
ltibia 79.8168
lfoot -24.6999 -0.745546
ltoes -14.7552
513
root 6.48857 13.6654 5.58357 33.5164 -51.6198 -16.1891
lowerback 13.916 5.01767 -1.55013
upperback 6.83002 6.16408 0.134611
thorax -0.749451 2.93292 0.124589
lowerneck -2.83313 -10.3236 -2.70607
upperneck -9.43535 -13.1557 15.4052
head -1.06158 -6.9938 4.93734
rclavicle -2.14687e-014 -1.63003e-014
rhumerus 20.8336 -7.0006 -58.2001
rradius 22.0063
rwrist 8.22953
rhand -26.0597 -35.24
rfingers 7.12502
rthumb 0.488054 -65.2192
lclavicle -2.14687e-014 -1.63003e-014
lhumerus 9.58839 14.0812 49.4988
lradius 24.6156
lwrist -11.948
lhand -48.3097 -44.1925
lfingers 7.12502
lthumb -20.9659 -15.3057
rfemur -10.5005 -7.71722 -8.42954
rtibia 29.4773
rfoot -9.54332 -24.8643
rtoes 23.6125
lfemur -86.5959 17.1335 -27.6176
ltibia 79.089
lfoot -23.9579 -0.599406
ltoes -15.3071
514
root 6.53676 13.6937 5.48333 34.0596 -51.3706 -16.364
lowerback 13.9041 5.28336 -1.43066
upperback 6.79873 6.52164 -0.0290802
thorax -0.748407 3.11545 -0.162356
lowerneck -2.75783 -10.6963 -2.73825
upperneck -9.69842 -13.6157 15.966
head -1.0626 -7.25615 5.1023
rclavicle 1.63003e-014 -2.94201e-014
rhumerus 21.5502 -6.67701 -57.2212
rradius 21.9626
rwrist 7.62785
rhand -25.4745 -35.4508
rfingers 7.12502
rthumb 1.05331 -65.4279
lclavicle 1.63003e-014 -2.94201e-014
lhumerus 9.44574 14.9392 47.7698
lradius 24.5974
lwrist -11.3182
lhand -48.1214 -43.6693
lfingers 7.12502
lthumb -20.785 -14.7626
rfemur -8.17258 -8.5323 -7.0424
rtibia 29.375
rfoot -8.52635 -24.3892
rtoes 21.1436
lfemur -87.0901 16.9567 -27.3984
ltibia 78.3078
lfoot -23.1849 -0.378514
ltoes -16.1132
515
root 6.58658 13.7238 5.38083 34.6411 -51.1519 -16.5345
lowerback 13.8112 5.48457 -1.48018
upperback 6.7928 6.77899 -0.101909
thorax -0.704041 3.24314 -0.239403
lowerneck -2.72471 -10.9662 -3.01146
upperneck -9.93455 -13.9385 16.5188
head -1.04085 -7.4395 5.30048
rclavicle 1.49089e-013 -1.07344e-014
rhumerus 22.3666 -5.98341 -56.155
rradius 21.9585
rwrist 6.84956
rhand -24.9107 -35.7565
rfingers 7.12502
rthumb 1.59783 -65.7302
lclavicle 1.49089e-013 -1.07344e-014
lhumerus 9.12171 16.1549 46.1796
lradius 24.6191
lwrist -10.8817
lhand -47.9219 -43.2314
lfingers 7.12502
lthumb -20.5933 -14.3038
rfemur -6.02149 -9.41181 -5.63286
rtibia 29.3367
rfoot -7.38166 -23.9026
rtoes 17.6963
lfemur -87.5886 16.7546 -27.1665
ltibia 77.4689
lfoot -22.3666 -0.112992
ltoes -17.059
516
root 6.63871 13.7556 5.27688 35.2632 -50.9545 -16.6908
lowerback 13.6916 5.70633 -1.48247
upperback 6.75681 7.06866 -0.258704
thorax -0.660515 3.38981 -0.431404
lowerneck -2.68741 -11.2319 -3.13889
upperneck -10.1955 -14.2547 17.0401
head -1.03862 -7.62589 5.46944
rclavicle -1.59425e-013 1.45908e-013
rhumerus 22.9926 -5.44231 -55.2087
rradius 21.9792
rwrist 6.08397
rhand -24.3792 -36.0437
rfingers 7.12502
rthumb 2.11118 -66.013
lclavicle -1.59425e-013 1.45908e-013
lhumerus 8.92686 17.2605 44.6391
lradius 24.6796
lwrist -10.5844
lhand -47.7408 -42.8468
lfingers 7.12502
lthumb -20.4193 -13.9004
rfemur -4.0597 -10.3348 -4.21077
rtibia 29.3628
rfoot -6.23858 -23.2968
rtoes 13.8088
lfemur -88.096 16.5022 -26.9099
ltibia 76.5728
lfoot -21.5013 0.18441
ltoes -18.027
517
root 6.69168 13.7897 5.17138 35.9538 -50.8039 -16.8766
lowerback 13.5665 6.00554 -1.39191
upperback 6.66919 7.46825 -0.556781
thorax -0.635496 3.59596 -0.835337
lowerneck -2.58697 -11.5445 -2.97694
upperneck -10.522 -14.6262 17.5537
head -1.08196 -7.85715 5.59908
rclavicle -1.39149e-014 4.73108e-014
rhumerus 23.3097 -5.28692 -54.4991
rradius 22.0001
rwrist 5.46952
rhand -23.9134 -36.2263
rfingers 7.12502
rthumb 2.56103 -66.1906
lclavicle -1.39149e-014 4.73108e-014
lhumerus 8.99378 18.0339 43.1114
lradius 24.7889
lwrist -10.3578
lhand -47.6056 -42.4938
lfingers 7.12502
lthumb -20.2894 -13.5336
rfemur -2.30269 -11.2226 -2.75174
rtibia 29.4418
rfoot -5.17234 -22.5006
rtoes 10.0868
lfemur -88.5989 16.2343 -26.591
ltibia 75.6197
lfoot -20.6022 0.517783
ltoes -18.9094
518
root 6.74631 13.8248 5.06492 36.7148 -50.6856 -17.1057
lowerback 13.3773 6.25213 -1.43008
upperback 6.57638 7.78878 -0.772249
thorax -0.605524 3.75917 -1.06554
lowerneck -2.42804 -11.772 -3.04853
upperneck -10.8376 -14.8795 18.0852
head -1.12138 -8.02421 5.77608
rclavicle 6.16232e-014 -2.42517e-014
rhumerus 23.6928 -4.88011 -53.8005
rradius 22.0364
rwrist 4.84613
rhand -23.5472 -36.3319
rfingers 7.12502
rthumb 2.91468 -66.2917
lclavicle 6.16232e-014 -2.42517e-014
lhumerus 8.80409 18.9649 41.637
lradius 24.9799
lwrist -10.2559
lhand -47.5277 -42.1778
lfingers 7.12502
lthumb -20.2146 -13.2096
rfemur -0.732598 -12.0969 -1.24726
rtibia 29.5499
rfoot -4.09975 -21.4432
rtoes 6.59847
lfemur -89.0933 15.9407 -26.1802
ltibia 74.6182
lfoot -19.6812 0.903379
ltoes -19.6038
519
root 6.80312 13.8598 4.95778 37.5288 -50.5985 -17.356
lowerback 13.1961 6.53979 -1.38891
upperback 6.43192 8.17029 -1.09551
thorax -0.603729 3.95655 -1.45941
lowerneck -2.17102 -12.0311 -2.9226
upperneck -11.2149 -15.163 18.6325
head -1.20528 -8.22353 5.93865
rclavicle 1.4233e-013 -5.725e-014
rhumerus 23.8437 -4.7687 -53.3523
rradius 22.0556
rwrist 4.41581
rhand -23.2723 -36.3709
rfingers 7.12502
rthumb 3.18013 -66.3269
lclavicle 1.4233e-013 -5.725e-014
lhumerus 8.74652 19.5345 40.1158
lradius 25.2416
lwrist -10.0605
lhand -47.4878 -41.8523
lfingers 7.12502
lthumb -20.1762 -12.8801
rfemur 0.658943 -12.9866 0.278505
rtibia 29.659
rfoot -2.97116 -20.0875
rtoes 3.36272
lfemur -89.5809 15.6134 -25.6882
ltibia 73.5704
lfoot -18.7411 1.34888
ltoes -20.1107
520
root 6.86313 13.8942 4.85047 38.3711 -50.547 -17.5914
lowerback 12.9916 6.76445 -1.45901
upperback 6.26361 8.46001 -1.35192
thorax -0.637552 4.10522 -1.71022
lowerneck -1.87794 -12.2268 -3.02792
upperneck -11.5337 -15.365 19.1799
head -1.26544 -8.37274 6.13816
rclavicle -7.39479e-014 -3.81667e-014
rhumerus 24.0434 -4.41349 -52.9218
rradius 22.0927
rwrist 3.99248
rhand -23.0454 -36.4153
rfingers 7.12502
rthumb 3.39928 -66.3679
lclavicle -7.39479e-014 -3.81667e-014
lhumerus 8.42952 20.1252 38.6079
lradius 25.5551
lwrist -9.82958
lhand -47.4936 -41.537
lfingers 7.12502
lthumb -20.1818 -12.5654
rfemur 1.87756 -13.9335 1.78371
rtibia 29.7354
rfoot -1.73334 -18.4362
rtoes 0.0402941
lfemur -90.0619 15.2375 -25.1383
ltibia 72.4747
lfoot -17.7795 1.86645
ltoes -20.4684
521
root 6.92727 13.9276 4.74356 39.2155 -50.5453 -17.7799
lowerback 12.808 6.98715 -1.54019
upperback 6.06248 8.74467 -1.63825
thorax -0.711461 4.25159 -1.98886
lowerneck -1.59685 -12.4324 -3.14347
upperneck -11.8091 -15.5854 19.7167
head -1.30733 -8.52854 6.33274
rclavicle -4.45278e-014 6.63941e-014
rhumerus 24.1396 -4.1047 -52.5927
rradius 22.1332
rwrist 3.63255
rhand -22.858 -36.4458
rfingers 7.12502
rthumb 3.58026 -66.3954
lclavicle -4.45278e-014 6.63941e-014
lhumerus 8.07639 20.4506 37.0897
lradius 25.9298
lwrist -9.40546
lhand -47.5258 -41.2325
lfingers 7.12502
lthumb -20.2127 -12.2641
rfemur 2.93275 -14.9625 3.22345
rtibia 29.7428
rfoot -0.416013 -16.5387
rtoes -3.83443
lfemur -90.5279 14.8069 -24.5546
ltibia 71.327
lfoot -16.7937 2.47583
ltoes -20.7812
522
root 6.99555 13.9607 4.63736 40.0552 -50.6137 -17.9188
lowerback 12.6907 7.20054 -1.58374
upperback 5.81322 9.01613 -2.00551
thorax -0.849736 4.39297 -2.37993
lowerneck -1.34109 -12.6465 -3.26371
upperneck -12.0156 -15.8242 20.2891
head -1.31706 -8.69086 6.53223
rclavicle -1.35969e-013 4.21423e-014
rhumerus 24.1308 -3.88877 -52.4629
rradius 22.1552
rwrist 3.36764
rhand -22.6529 -36.4373
rfingers 7.12502
rthumb 3.77833 -66.3835
lclavicle -1.35969e-013 4.21423e-014
lhumerus 7.688 20.4473 35.4863
lradius 26.3895
lwrist -8.7197
lhand -47.5675 -40.8872
lfingers 7.12502
lthumb -20.2528 -11.9231
rfemur 3.83844 -16.067 4.57583
rtibia 29.6436
rfoot 0.852388 -14.4947
rtoes -8.20644
lfemur -90.9648 14.3361 -23.9426
ltibia 70.1233
lfoot -15.784 3.189
ltoes -21.1867
